<?xml version="1.0" encoding="UTF-8"?>
<svg id="Ebene_1" xmlns="http://www.w3.org/2000/svg" version="1.1" viewBox="0 0 1072.6 403.4">
  <!-- Generator: Adobe Illustrator 30.2.1, SVG Export Plug-In . SVG Version: 2.1.1 Build 1)  -->
  <g>
    <g>
      <path d="M477.1,87.9c.5-2.8,3-4.9,5.8-4.9h50c12,0,20.4,2.8,25.4,8.5s6.5,13.8,4.6,24.3c-1.9,10.8-6.7,19.2-14.3,25.3-7.6,6.1-18,9.1-31.4,9.1h-18.1l-7.1,39.7h-26.1c-3.7,0-6.5-3.3-5.8-7l17-95.2h0ZM503.1,128.6h8.1c6.4,0,11-1.1,14-3.3,3-2.2,4.8-5.1,5.4-8.5.6-3.4,0-6.2-1.8-8.5-1.8-2.3-5.8-3.5-12-3.5h-9.4l-4.2,23.9h0Z" fill="#333"/>
      <path d="M623.3,172.3h-37.5l-6.8,14.3c-1,2.1-3.1,3.4-5.4,3.4h-30l57.6-103.9c1-1.9,3-3.1,5.2-3.1h27.7c2.8,0,5.3,2,5.8,4.8l20.2,102.2h-29.4c-3,0-5.5-2.2-5.9-5.2l-1.6-12.5h0ZM620.5,149.2l-5-38.5-18.5,38.5h23.5Z" fill="#333"/>
      <path d="M690.1,83h49.1c9.7,0,17.3,1.3,22.8,3.9,5.5,2.6,9.8,6.4,12.8,11.3,3,4.9,4.8,10.6,5.4,17.2.6,6.5.2,13.4-1.1,20.7-2,11.4-4.9,20.3-8.6,26.6-3.7,6.3-8.3,11.6-13.7,15.8-5.4,4.3-10.8,7.1-16.4,8.5-7.6,1.9-14.3,2.9-20.2,2.9h-49.1l19.1-107h0ZM718.8,107.2l-10.4,58.5h8.1c6.9,0,12-.8,15.2-2.3s6-4.2,8.3-8c2.3-3.8,4.3-10,5.8-18.6,2-11.3,1.5-19.1-1.4-23.3s-8.7-6.3-17.3-6.3h-8.2,0Z" fill="#333"/>
      <path d="M810.8,83h83.6l-4.1,22.8h-55.5l-3,17h51.5l-3.9,21.8h-51.5l-3.8,21.1h57.1l-4.3,24.2h-83.1c-3.7,0-6.5-3.3-5.8-7l17-95.2c.5-2.8,3-4.9,5.8-4.9h0Z" fill="#333"/>
      <path d="M913.9,83h33.1l-14.4,80.7h51.6l-3.8,21.5c-.5,2.8-3,4.9-5.8,4.9h-72.6c-3.7,0-6.5-3.3-5.8-7l17.8-100h0Z" fill="#333"/>
    </g>
    <g>
      <path d="M454.8,213.1c.5-2.8,3-4.9,5.8-4.9h50c12,0,20.4,2.9,25.4,8.5,5,5.7,6.5,13.8,4.6,24.3-1.9,10.8-6.7,19.2-14.3,25.3-7.6,6.1-18,9.1-31.4,9.1h-18.1l-7.1,39.7h-26.1c-3.7,0-6.5-3.3-5.8-7l17-95.1h0ZM480.8,253.8h8.1c6.4,0,11-1.1,14-3.3s4.8-5.1,5.4-8.5c.6-3.4,0-6.2-1.8-8.5-1.8-2.3-5.8-3.5-12-3.5h-9.4l-4.2,23.9h0Z" fill="#333"/>
      <path d="M552.2,261.8c3.1-17.5,10.4-31.1,21.9-40.8,11.5-9.7,25.9-14.6,43.2-14.6s30.7,4.8,38.6,14.3,10.4,22.9,7.3,40.2c-2.2,12.5-6.2,22.8-11.8,30.8-5.6,8-12.8,14.2-21.6,18.7-8.8,4.5-19.1,6.7-30.9,6.7s-21.7-1.9-28.9-5.8c-7.2-3.8-12.5-9.9-16-18.2s-4-18.7-1.8-31.2h0ZM585.2,261.9c-1.9,10.8-1.3,18.6,1.9,23.3s8.2,7.1,15.1,7.1,13-2.3,17.7-6.9,8.1-12.9,10.3-24.9c1.8-10.1,1.1-17.4-2.2-22.1-3.2-4.6-8.3-7-15.3-7s-12.4,2.4-17.3,7.1-8.3,12.5-10.2,23.4h0Z" fill="#333"/>
      <path d="M693.8,208.2h33.1l-19.1,107h-33.1l19.1-107Z" fill="#333"/>
      <path d="M753,208.2h30.9l29.8,59.2,10.5-59.2h31.2l-19.1,107h-31.2l-29.6-58.8-10.5,58.8h-31.1l19.1-107h0Z" fill="#333"/>
      <path d="M871.8,208.2h100.5l-4.7,26.4h-33.7l-14.3,80.6h-33.1l14.3-80.6h-33.7l4.7-26.4h0Z" fill="#333"/>
    </g>
  </g>
  <circle cx="338.5" cy="292.3" r="36.8" fill="#333"/>
  <path d="M230.4,243.1h49c25.8,0,46.8-3.6,63-10.9,16.2-7.3,28.1-17.7,35.7-31.2s11.5-29.6,11.5-48.1-3.8-34.9-11.5-48.3c-7.6-13.4-19.5-23.7-35.7-31s-37.1-10.9-63-10.9h-103.4l-14.1,90c-.8,5.2,3.2,9.9,8.5,9.9h72.6l5.4-34.2h31c10.3,0,18,2.1,23.3,6.4,5.3,4.3,7.9,10.3,7.9,18s-2.6,13.8-7.9,18c-5.3,4.3-13,6.4-23.3,6.4h-111c-5.9,0-11,4.3-11.9,10.2l-19.8,125c-.8,5.2,3.2,9.9,8.5,9.9h72.6l12.6-79.4Z" fill="#333"/>
</svg>